<?xml version="1.0" encoding="UTF-8" standalone="no"?>
<!-- Created with Inkscape (http://www.inkscape.org/) -->

<svg
   width="94.653618mm"
   height="100.00022mm"
   viewBox="0 0 94.653618 100.00022"
   version="1.1"
   id="svg99950"
   sodipodi:docname="partyball.svg"
   inkscape:version="1.1 (c68e22c387, 2021-05-23)"
   xmlns:inkscape="http://www.inkscape.org/namespaces/inkscape"
   xmlns:sodipodi="http://sodipodi.sourceforge.net/DTD/sodipodi-0.dtd"
   xmlns="http://www.w3.org/2000/svg"
   xmlns:svg="http://www.w3.org/2000/svg">
  <sodipodi:namedview
     id="namedview99952"
     pagecolor="#ffffff"
     bordercolor="#666666"
     borderopacity="1.0"
     inkscape:pageshadow="2"
     inkscape:pageopacity="0.0"
     inkscape:pagecheckerboard="0"
     inkscape:document-units="mm"
     showgrid="false"
     inkscape:zoom="1"
     inkscape:cx="45.5"
     inkscape:cy="262.5"
     inkscape:window-width="1858"
     inkscape:window-height="1177"
     inkscape:window-x="54"
     inkscape:window-y="-8"
     inkscape:window-maximized="1"
     inkscape:current-layer="g100029"
     fit-margin-top="0"
     fit-margin-left="0"
     fit-margin-right="0"
     fit-margin-bottom="0" />
  <defs
     id="defs99947" />
  <g
     inkscape:label="[fixed] BG"
     inkscape:groupmode="layer"
     sodipodi:insensitive="true"
     id="g100019"
     transform="translate(-88.454136,-28.958887)"
     style="display:none">
    <rect
       x="0"
       y="0"
       width="100"
       height="100"
       style="fill:#ffffff;fill-opacity:1;stroke:none"
       id="rect100017" />
  </g>
  <g
     inkscape:label="Edge.Cuts"
     inkscape:groupmode="layer"
     id="g100021"
     transform="translate(-88.4541, -28.9589)"
     style="display:inline">
    <path
       style="color:#000000;display:inline;fill:none;stroke:#000000;stroke-width:0.05;stroke-linecap:round;stroke-linejoin:round;stroke-miterlimit:4;stroke-dasharray:none;stroke-opacity:1"
       d="m 158.41358,28.9589 -0.3935,0.0075 -0.39199,0.01365 -0.39032,0.01971 -0.38853,0.02572 -0.3866,0.03165 -0.38453,0.03753 -0.38234,0.04334 -0.38,0.0491 -0.37752,0.05479 -0.37492,0.06041 -0.37218,0.06598 -0.36929,0.07148 -0.36629,0.07693 -0.36313,0.08231 -0.35985,0.08762 -0.35643,0.09288 -1.08102,0.332319 -1.05669,0.402959 -1.03079,0.466266 -1.0033,0.522243 -0.97423,0.570887 -0.94357,0.6122 -0.91132,0.64618 -0.8775,0.67283 -0.84209,0.692146 -0.8051,0.704132 -0.76651,0.708785 -0.72636,0.706107 -0.6846,0.696096 -0.64128,0.678755 -0.59636,0.65408 -0.54986,0.622075 -0.0183,0.02189 -0.0169,0.02193 -0.0156,0.02197 -0.0146,0.02201 -0.0137,0.02204 -0.013,0.02208 -0.0124,0.02211 -0.0121,0.02215 -0.0119,0.02217 -0.0119,0.0222 -0.012,0.02223 -0.0124,0.02226 -0.0129,0.02228 -0.0136,0.02231 -0.0144,0.02233 -0.0155,0.02235 -0.17967,-0.02763 -0.17989,-0.02665 -0.18012,-0.02565 -0.18034,-0.02461 -0.18057,-0.02355 -0.18081,-0.02245 -0.18105,-0.02133 -0.1813,-0.02017 -0.18156,-0.01899 -0.18181,-0.01778 -0.18207,-0.01653 -0.18234,-0.01526 -0.18262,-0.01396 -0.18289,-0.01262 -0.18317,-0.01126 -0.18346,-0.0099 -0.0401,-0.07028 -0.0547,-0.09297 -0.0699,-0.114719 -0.0858,-0.135528 -0.10229,-0.155396 -0.11943,-0.174325 -0.13723,-0.192315 -0.15565,-0.209365 -0.17471,-0.225475 -0.19442,-0.240646 -0.21476,-0.254877 -0.23574,-0.268168 -0.25736,-0.280521 -0.27962,-0.291933 -0.30252,-0.302406 -0.32605,-0.31194 -0.39481,-0.36001 -0.4241,-0.366981 -0.45399,-0.372421 -0.48448,-0.376333 -0.51557,-0.378713 -0.54726,-0.379564 -0.57956,-0.378884 -0.61245,-0.376675 -0.64595,-0.372935 -0.68005,-0.367665 -0.71474,-0.360865 -0.75005,-0.352536 -0.78594,-0.342675 -0.82245,-0.331285 -0.85955,-0.318364 -0.89726,-0.303914 -0.30487,-0.09517 -0.30736,-0.08927 -0.30975,-0.08341 -0.31206,-0.07758 -0.31425,-0.07179 -0.31637,-0.06603 -0.31838,-0.0603 -0.32029,-0.05461 -0.32212,-0.04896 -0.32384,-0.04334 -0.32547,-0.03776 -0.327,-0.03221 -0.32844,-0.02669 -0.32978,-0.02121 -0.33103,-0.01577 -0.33218,-0.01036 -0.90172,-0.0015 -0.90772,0.03685 -0.9119,0.07489 -0.91426,0.112663 -0.91477,0.150169 -0.91346,0.187406 -0.91033,0.224376 -0.90535,0.261078 -0.89856,0.297513 -0.88994,0.333678 -0.87948,0.369577 -0.8672,0.405208 -0.85309,0.440571 -0.83714,0.475666 -0.81937,0.510493 -0.79978,0.545053 -0.77829,0.580131 -0.75463,0.615603 -0.72871,0.650635 -0.70052,0.685223 -0.670062,0.719369 -0.637351,0.753073 -0.602374,0.786335 -0.565134,0.819155 -0.52563,0.851532 -0.483864,0.883467 -0.439834,0.91496 -0.393542,0.946011 -0.344986,0.976619 -0.294167,1.006786 -0.241086,1.03651 -0.185741,1.065791 -0.200781,1.716 -0.096,1.652771 -1.55e-4,1.588223 0.08674,1.522359 0.164684,1.455178 0.233684,1.386678 0.293735,1.316861 0.344841,1.245727 0.387,1.173276 0.420211,1.099506 0.444476,1.02442 0.459794,0.948016 0.466165,0.870295 0.463589,0.791255 0.452067,0.7109 0.431597,0.629225 0.239323,0.310721 0.260458,0.288508 0.27997,0.265597 0.29783,0.24199 0.31406,0.217687 0.32866,0.192686 0.34163,0.166991 0.35294,0.140598 0.36264,0.113508 0.3707,0.08572 0.37711,0.05724 0.3819,0.02806 0.38504,-0.0018 0.38656,-0.03239 0.38644,-0.06365 0.38468,-0.09562 0.0828,-0.02485 0.088,-0.02779 0.0925,-0.0304 0.0966,-0.03267 0.1,-0.0346 0.10284,-0.03621 0.10511,-0.03747 0.10682,-0.0384 0.10794,-0.039 0.1085,-0.03926 0.10847,-0.03919 0.10787,-0.03878 0.1067,-0.03803 0.10494,-0.03695 0.10261,-0.03554 0.0997,-0.03379 -0.003,0.01733 -0.003,0.02009 -0.003,0.02242 -0.002,0.02431 -0.002,0.02578 -0.002,0.02681 -0.002,0.02741 -0.002,0.02758 -0.002,0.02732 -0.002,0.02662 -0.002,0.02549 -0.002,0.02394 -0.003,0.02195 -0.003,0.01952 -0.003,0.01667 -0.004,0.01338 -0.0982,0.289122 -0.10701,0.272091 -0.11632,0.256294 -0.12614,0.241733 -0.13645,0.228403 -0.14726,0.216309 -0.15857,0.205449 -0.17038,0.195821 -0.18269,0.187429 -0.19549,0.180271 -0.2088,0.174345 -0.22259,0.169655 -0.2369,0.166197 -0.25169,0.163975 -0.267,0.162985 -0.28278,0.163231 -0.3573,0.190648 -0.39699,0.197922 -0.43025,0.208792 -0.45713,0.223254 -0.47758,0.241313 -0.49163,0.262964 -0.49927,0.288211 -0.50051,0.317052 -0.495335,0.349487 -0.483754,0.385517 -0.465767,0.425141 -0.441371,0.468359 -0.410568,0.515173 -0.373357,0.565579 -0.329737,0.619581 -0.279712,0.677177 v 1.25e-4 1.25e-4 1.25e-4 1.25e-4 1.25e-4 1.25e-4 1.25e-4 1.25e-4 1.25e-4 1.25e-4 1.25e-4 1.25e-4 1.25e-4 1.25e-4 1.25e-4 1.25e-4 l -0.233017,0.754315 -0.159539,0.736716 -0.09218,0.718101 -0.03095,0.698468 0.02417,0.677816 0.07316,0.656149 0.116033,0.633462 0.152784,0.609758 0.183414,0.585037 0.207922,0.559298 0.226309,0.532541 0.238575,0.504767 0.244721,0.475975 0.244744,0.446165 0.238646,0.415339 0.226428,0.383493 1.25e-4,1.25e-4 1.25e-4,1.25e-4 1.25e-4,1.25e-4 1.25e-4,1.25e-4 1.25e-4,1.25e-4 1.25e-4,1.25e-4 1.25e-4,1.25e-4 1.25e-4,1.25e-4 1.25e-4,1.25e-4 1.25e-4,1.25e-4 1.25e-4,1.25e-4 1.25e-4,1.25e-4 1.25e-4,1.25e-4 1.25e-4,1.25e-4 1.25e-4,1.25e-4 1.25e-4,1.25e-4 0.07729,0.130476 0.06796,0.116332 0.05942,0.103418 0.05168,0.09173 0.04472,0.08127 0.03857,0.07204 0.0332,0.06404 0.02864,0.05727 0.02486,0.05173 0.02188,0.04741 0.01969,0.04432 0.0183,0.04246 0.0177,0.04183 0.0179,0.04243 0.01889,0.04426 0.02068,0.04731 -0.253415,0.179591 -0.268607,0.191485 -0.282083,0.203777 -0.293846,0.216466 -0.303895,0.229553 -0.31223,0.243037 -0.31885,0.256921 -0.323755,0.2712 -0.326948,0.285878 -0.328425,0.300954 -0.328189,0.316428 -0.326237,0.332299 -0.322573,0.348567 -0.317194,0.365235 -0.3101,0.382298 -0.301293,0.399761 -0.267898,0.386517 -0.255091,0.403982 -0.241063,0.421174 -0.225817,0.43809 -0.209348,0.454733 -0.191661,0.471102 -0.172752,0.487196 -0.152624,0.503016 -0.131275,0.518561 -0.108705,0.533833 -0.08492,0.54883 -0.05991,0.563553 -0.03368,0.578001 -0.0062,0.592176 0.02245,0.606075 0.05233,0.619701 -0.205431,0.21497 -0.215199,0.21918 -0.22291,0.22458 -0.228563,0.23117 -0.232159,0.23894 -0.233699,0.2479 -0.233181,0.25805 -0.230607,0.26937 -0.225974,0.2819 -0.219286,0.29559 -0.21054,0.31048 -0.199736,0.32656 -0.186877,0.34381 -0.171959,0.36226 -0.154985,0.38189 -0.135954,0.40271 -2.75e-4,0.002 -2.75e-4,0.002 -2.75e-4,0.002 -2.75e-4,0.002 -2.75e-4,0.002 -2.75e-4,0.002 -2.75e-4,0.002 -2.75e-4,0.002 -2.75e-4,0.002 -2.75e-4,0.002 -2.75e-4,0.002 -2.75e-4,0.002 -2.75e-4,0.002 -2.75e-4,0.002 -2.75e-4,0.002 -2.75e-4,0.002 -0.12967,0.49754 -0.09137,0.48996 -0.05701,0.48186 -0.02659,0.47327 -1.08e-4,0.46416 0.02243,0.45456 0.04103,0.44445 0.05568,0.43383 0.06639,0.42271 0.07317,0.41108 0.076,0.39896 0.07489,0.38632 0.06984,0.37317 0.06084,0.35954 0.04791,0.34538 0.03103,0.33073 1.15e-4,0.001 1.16e-4,0.002 1.19e-4,0.001 1.2e-4,0.001 1.21e-4,0.001 1.24e-4,0.001 1.24e-4,0.001 1.26e-4,0.001 1.27e-4,0.001 1.27e-4,0.001 1.29e-4,0.001 1.29e-4,0.001 1.3e-4,0.001 1.31e-4,0.001 1.31e-4,0.001 1.31e-4,0.001 1.87e-4,0.002 1.88e-4,0.002 1.87e-4,0.002 1.88e-4,0.002 1.87e-4,0.002 1.88e-4,0.002 1.87e-4,0.002 1.88e-4,0.002 1.87e-4,0.002 1.88e-4,0.002 1.87e-4,0.002 1.88e-4,0.002 1.87e-4,0.002 1.88e-4,0.002 1.87e-4,0.002 1.88e-4,0.002 v 3.8e-4 3.7e-4 3.8e-4 3.7e-4 3.7e-4 3.8e-4 3.7e-4 3.8e-4 3.7e-4 3.8e-4 3.7e-4 3.8e-4 3.7e-4 3.8e-4 3.7e-4 3.8e-4 l 0.01818,0.4698 0.0027,0.48357 -0.0089,0.49651 -0.01667,0.50863 -0.02053,0.51992 -0.02052,0.53039 -0.01663,0.54002 -0.0089,0.54883 0.0028,0.55683 0.01831,0.56397 0.03771,0.57032 0.06099,0.57581 0.08815,0.5805 0.119182,0.58435 0.154091,0.58737 0.192878,0.58958 2.87e-4,6.7e-4 2.88e-4,6.7e-4 2.87e-4,6.7e-4 2.88e-4,6.6e-4 2.87e-4,6.7e-4 2.88e-4,6.7e-4 2.87e-4,6.7e-4 2.88e-4,6.7e-4 2.87e-4,6.7e-4 2.88e-4,6.7e-4 2.87e-4,6.7e-4 2.88e-4,6.6e-4 2.87e-4,6.7e-4 2.88e-4,6.7e-4 2.87e-4,6.7e-4 2.88e-4,6.7e-4 0.142794,0.39196 0.152482,0.40811 0.164288,0.42029 0.178209,0.4285 0.194246,0.43273 0.212398,0.433 0.232668,0.42929 0.255052,0.42161 0.279554,0.40995 0.30617,0.39433 0.334903,0.37474 0.365752,0.35117 0.398716,0.32363 0.433798,0.29211 0.470994,0.25664 0.510306,0.21718 0.0013,5.6e-4 0.0013,5.6e-4 0.0013,5.7e-4 0.0013,5.6e-4 0.0013,5.6e-4 0.0013,5.6e-4 0.0013,5.7e-4 0.0013,5.6e-4 0.0013,5.6e-4 0.0013,5.7e-4 0.0013,5.6e-4 0.0013,5.6e-4 0.0013,5.6e-4 0.0013,5.7e-4 0.0013,5.6e-4 0.0013,5.6e-4 0.891068,0.28654 0.889085,0.21204 0.886733,0.14212 0.884011,0.0768 0.880923,0.016 0.877465,-0.0403 0.873636,-0.0919 0.86945,-0.13903 0.86488,-0.18156 0.85995,-0.21953 0.85465,-0.25293 0.84898,-0.28177 0.84294,-0.30604 0.83654,-0.32575 0.82977,-0.34088 0.82262,-0.35146 0.81727,-0.35797 0.81376,-0.36138 0.81,-0.36155 0.80599,-0.35849 0.80171,-0.35218 0.79718,-0.34265 0.79239,-0.32987 0.78734,-0.31386 0.78205,-0.29461 0.77648,-0.27213 0.77067,-0.2464 0.7646,-0.21745 0.75827,-0.18526 0.75168,-0.14983 0.74484,-0.11116 0.73774,-0.0693 0.82206,-0.0439 0.82446,-0.0261 0.82621,-0.008 0.82734,0.01 0.82781,0.0273 0.82765,0.0451 0.82685,0.0628 0.82541,0.0806 0.82334,0.0983 0.82061,0.11597 0.81726,0.13366 0.81326,0.15134 0.80863,0.169 0.80335,0.18664 0.79744,0.20428 0.79088,0.22189 7.5e-4,1.9e-4 7.5e-4,1.8e-4 7.5e-4,1.9e-4 7.5e-4,1.9e-4 7.5e-4,1.9e-4 7.4e-4,1.9e-4 7.5e-4,1.8e-4 7.5e-4,1.9e-4 7.4e-4,1.9e-4 7.5e-4,1.9e-4 7.4e-4,1.8e-4 7.4e-4,1.9e-4 7.4e-4,1.9e-4 7.3e-4,1.9e-4 7.4e-4,1.8e-4 7.3e-4,1.9e-4 0.35879,0.1139 0.35812,0.12952 0.35774,0.1442 0.35764,0.1579 0.35783,0.17066 0.3583,0.18246 0.35908,0.19329 0.36013,0.20318 0.36147,0.2121 0.3631,0.22006 0.36501,0.22708 0.36722,0.23313 0.36972,0.23822 0.37249,0.24236 0.37556,0.24553 0.37892,0.24776 0.36869,0.23922 0.37349,0.23839 0.37866,0.23635 0.38417,0.23307 0.39004,0.22858 0.39626,0.22287 0.40284,0.21591 0.40976,0.20776 0.41705,0.19835 0.42469,0.18775 0.43268,0.1759 0.44102,0.16284 0.44972,0.14856 0.45878,0.13304 0.46817,0.1163 0.47794,0.0984 0.0189,0.006 0.0189,0.006 0.0189,0.006 0.0189,0.006 0.0189,0.006 0.0189,0.006 0.0189,0.006 0.0189,0.006 0.0189,0.006 0.0189,0.006 0.0189,0.006 0.0189,0.006 0.0189,0.006 0.0189,0.006 0.0189,0.006 0.0189,0.006 1.70209,0.23723 1.73037,0.18849 1.75276,0.13569 1.76928,0.0788 1.7799,0.0179 1.78465,-0.0471 1.78351,-0.11616 1.77649,-0.18929 1.76359,-0.26647 1.74481,-0.34771 1.72015,-0.43303 1.68959,-0.5224 1.65317,-0.61583 1.61085,-0.71334 1.56266,-0.8149 1.50858,-0.92052 0.41305,-0.2932 0.3852,-0.31511 0.35863,-0.33497 0.3333,-0.35277 0.30926,-0.36851 0.28647,-0.38219 0.26495,-0.3938 0.24469,-0.40336 0.22571,-0.41086 0.20798,-0.4163 0.19153,-0.41968 0.17633,-0.421 0.16241,-0.42026 0.14975,-0.41746 0.13836,-0.4126 0.12822,-0.40568 1.9e-4,-6.3e-4 1.8e-4,-6.3e-4 1.9e-4,-6.3e-4 1.9e-4,-6.3e-4 1.9e-4,-6.4e-4 1.8e-4,-6.3e-4 1.9e-4,-6.3e-4 1.9e-4,-6.3e-4 1.9e-4,-6.3e-4 1.8e-4,-6.3e-4 1.9e-4,-6.3e-4 1.9e-4,-6.3e-4 1.9e-4,-6.4e-4 1.8e-4,-6.3e-4 1.9e-4,-6.3e-4 1.9e-4,-6.3e-4 0.001,-0.004 9.4e-4,-0.004 8.4e-4,-0.004 7.7e-4,-0.004 7.1e-4,-0.004 6.8e-4,-0.005 6.7e-4,-0.005 6.8e-4,-0.005 7.1e-4,-0.005 7.7e-4,-0.005 8.5e-4,-0.005 9.4e-4,-0.005 0.001,-0.005 0.001,-0.005 0.001,-0.005 0.002,-0.005 0.001,-0.007 0.001,-0.007 0.001,-0.007 0.001,-0.007 0.001,-0.007 0.001,-0.007 0.001,-0.007 0.001,-0.007 0.001,-0.007 0.001,-0.007 0.001,-0.007 0.001,-0.007 0.001,-0.007 0.001,-0.007 0.001,-0.007 0.001,-0.007 0.24097,-0.91516 0.18874,-0.91482 0.1418,-0.91357 0.10014,-0.91144 0.0638,-0.90842 0.0327,-0.9045 0.007,-0.89969 -0.0136,-0.89398 -0.0289,-0.88739 -0.0388,-0.87991 -0.0435,-0.87152 -0.0429,-0.86225 -0.037,-0.85208 -0.0258,-0.84102 -0.009,-0.82908 0.0124,-0.81623 0.23534,-0.58819 0.20863,-0.59776 0.18212,-0.60657 0.15584,-0.61465 0.12974,-0.62197 0.10387,-0.628547 0.0782,-0.634379 0.0527,-0.639461 0.0275,-0.643798 0.002,-0.647388 -0.0224,-0.650229 -0.0471,-0.652324 -0.0715,-0.653672 -0.0957,-0.654272 -0.11972,-0.654127 -0.14353,-0.653233 0.063,-0.820518 0.0602,-0.821882 0.0568,-0.823226 0.0526,-0.824555 0.0479,-0.825865 0.0425,-0.827158 0.0364,-0.828432 0.0296,-0.829689 0.0222,-0.830929 0.0142,-0.83215 0.005,-0.833354 -0.004,-0.834541 -0.014,-0.835709 -0.0247,-0.83686 -0.0361,-0.837993 -0.0481,-0.839109 0.2111,-0.291632 0.2111,-0.291632 0.2111,-0.291632 0.2111,-0.291632 0.2111,-0.291631 0.2111,-0.291632 0.2111,-0.291632 0.2111,-0.291632 0.21111,-0.291632 0.2111,-0.291632 0.2111,-0.291632 0.2111,-0.291632 0.2111,-0.291631 0.2111,-0.291632 0.2111,-0.291632 0.2111,-0.291632 0.0875,-0.134919 0.0721,-0.140355 0.0568,-0.144688 0.0418,-0.147918 0.0268,-0.150045 0.0121,-0.15107 -0.002,-0.150992 -0.0168,-0.149811 -0.031,-0.147528 -0.045,-0.144142 -0.0589,-0.139653 -0.0725,-0.134062 -0.086,-0.127367 -0.0993,-0.119571 -0.11247,-0.110671 -0.12543,-0.100668 -0.31109,-0.2251 -0.3111,-0.2251 -0.31109,-0.2251 -0.31109,-0.2251 -0.31109,-0.2251 -0.3111,-0.2251 -0.31109,-0.2251 -0.31109,-0.2251 -0.31109,-0.2251 -0.3111,-0.2251 -0.31109,-0.2251 -0.31109,-0.2251 -0.31109,-0.2251 -0.3111,-0.2251 -0.31109,-0.2251 -0.31109,-0.2251 -0.0725,-0.308166 -0.0711,-0.311885 -0.0701,-0.315396 -0.0692,-0.318696 -0.0686,-0.321788 -0.0683,-0.324669 -0.0682,-0.327341 -0.0683,-0.329804 -0.0688,-0.332057 -0.0694,-0.334102 -0.0704,-0.335935 -0.0716,-0.33756 -0.073,-0.338976 -0.0747,-0.340182 -0.0767,-0.341178 -0.0789,-0.341965 0.0393,-0.0444 0.0401,-0.0433 0.0407,-0.04244 0.0411,-0.04182 0.0413,-0.04142 0.0414,-0.04127 0.0413,-0.04134 0.041,-0.04165 0.0405,-0.0422 0.0399,-0.04298 0.0391,-0.04399 0.0381,-0.04524 0.037,-0.04672 0.0356,-0.04844 0.0341,-0.05039 0.0324,-0.05258 v -1.25e-4 -1.25e-4 -1.25e-4 -1.25e-4 -1.25e-4 -1.25e-4 -1.25e-4 -1.25e-4 -1.25e-4 -1.25e-4 -1.25e-4 -1.25e-4 -1.25e-4 -1.25e-4 -1.25e-4 -1.25e-4 l 0.35032,-0.612031 0.36281,-0.672939 0.36853,-0.731228 0.3675,-0.786898 0.35972,-0.83995 0.34519,-0.890383 0.3239,-0.938198 0.29586,-0.983393 0.26107,-1.02597 0.21952,-1.065929 0.17122,-1.103268 0.11616,-1.137989 0.0544,-1.170092 -0.0142,-1.199575 -0.0895,-1.22644 -0.17158,-1.250687 -0.24421,-1.277566 -0.28921,-1.229482 -0.3326,-1.181732 -0.37437,-1.134313 -0.41451,-1.087227 -0.45305,-1.040474 -0.48995,-0.994054 -0.52524,-0.947966 -0.55891,-0.90221 -0.59096,-0.856788 -0.6214,-0.811698 -0.6502,-0.76694 -0.67739,-0.722516 -0.70297,-0.678423 -0.72691,-0.634664 -0.74925,-0.591237 -0.76906,-0.5483 -0.78635,-0.506198 -0.80202,-0.464943 -0.81605,-0.424536 -0.82845,-0.384976 -0.83923,-0.346264 -0.84838,-0.3084 -0.85589,-0.271383 -0.86178,-0.235215 -0.86603,-0.199893 -0.86867,-0.165421 -0.86965,-0.131794 -0.86903,-0.09902 -0.86677,-0.06709 -0.86287,-0.036 -0.85735,-0.0058 -1.7e-4,-9e-5 -1.7e-4,-9e-5 -1.7e-4,-9e-5 -1.8e-4,-9e-5 -1.7e-4,-9e-5 -1.7e-4,-9e-5 -1.7e-4,-9e-5 -1.7e-4,-9e-5 -1.7e-4,-9e-5 -1.7e-4,-9e-5 -1.7e-4,-9e-5 -1.8e-4,-9e-5 -1.7e-4,-9e-5 -1.7e-4,-9e-5 -1.7e-4,-9e-5 z"
       id="path112587"
       sodipodi:nodetypes="ccccccccccccccccccccccccccccccccccccccccccccccccccccccccccccccccccccccccccccccccccccccccccccccccccccccccccccccccccccccccccccccccccccccccccccccccccccccccccccccccccccccccccccccccccccccccccccccccccccccccccccccccccccccccccccccccccccccccccccccccccccccccccccccccccccccccccccccccccccccccccccccccccccccccccccccccccccccccccccccccccccccccccccccccccccccccccccccccccccccccccccccccccccccccccccccccccccccccccccccccccccccccccccccccccccccccccccccccccccccccccccccccccccccccccccccccccccccccccccccccccccccccccccccccccccccccccccccccccccccccccccccccccccccccccccccccccccccccccccccccccccccccccccccccccccccccccccccccccccccccccccccccccccccccccccccccccccccccccccccccccccccccccccccccccccccccccccccccccccccccccccccccccccccccccccccccccccccccccccccccccccccccccccccccccccccccccccccccccccccccccccccccccccccccccccccccccccccccccccccccccccccccccccccccccccccccccccccccccccccccccccccccccccccccccccccccccccccccccccccccccccccccccccccccc" />
  </g>
  <g
     inkscape:label="B.Cu"
     inkscape:groupmode="layer"
     id="g100023"
     transform="translate(-88.454136,-28.958887)"
     style="display:none" />
  <g
     inkscape:label="B.Mask"
     inkscape:groupmode="layer"
     id="g100025"
     transform="translate(-88.454136,-28.958887)"
     style="display:none" />
  <g
     inkscape:label="B.SilkS"
     inkscape:groupmode="layer"
     id="g100027"
     transform="translate(-88.454136,-28.958887)"
     style="display:none" />
  <g
     inkscape:label="F.Cu"
     inkscape:groupmode="layer"
     id="g100029"
     transform="translate(-88.454136,-28.958887)"
     style="display:inline">
    <path
       id="path13-0"
       style="display:inline;fill:#ff0000;fill-opacity:1;stroke-width:0.0891379"
       d="m 158.43229,30.529329 c -1.9687,0.0209 -3.8845,0.292723 -5.64565,0.766878 -5.21472,1.405775 -9.99716,6.086252 -12.71446,9.204089 -1.39008,1.594258 -1.24122,4.005373 0.30592,5.442562 2.29753,2.134177 5.77553,5.267133 9.15861,7.936466 0.3231,-0.784472 0.69239,-1.556187 1.10743,-2.311486 -2.99574,-2.320597 -5.08916,-4.254165 -6.36292,-5.522661 -0.44839,-0.448385 -0.10326,-1.174168 0.47387,-1.177706 0.0597,-3.7e-4 0.12199,0.0071 0.18604,0.02326 3.00003,0.753935 8.53663,2.442126 13.45292,5.512841 5.04194,3.157104 10.13894,7.955815 12.72274,10.523905 0.51047,0.502624 0.008,1.350889 -0.68316,1.146702 -3.1571,-0.918861 -8.96105,-2.960886 -14.70195,-6.832659 -0.21506,-0.145017 -0.42113,-0.287547 -0.63045,-0.430982 -0.31924,0.816539 -0.57054,1.660467 -0.75654,2.519744 7.96947,4.970856 13.92035,6.763636 17.11782,7.406267 1.64138,0.32984 3.29834,-0.440114 4.14651,-1.885157 1.71992,-2.921497 4.17776,-8.395157 3.12539,-14.575855 -2.24609,-13.221354 -11.77107,-17.836783 -20.30212,-17.746203 z" />
    <path
       d="m 173.02519,122.6558 c -9.7776,-6.14929 -16.32742,-18.12586 -17.52115,-32.042251 -1.07592,-12.573442 1.97123,-25.303954 4.42152,-35.5292 l 5.02624,2.285365 c -2.34034,9.785453 -4.17806,21.141603 -3.18852,32.701944 1.02095,11.960872 6.48698,22.154702 14.60749,27.259472 z"
       fill="#03a9f4"
       id="path24"
       style="display:inline;fill:#ff0000;fill-opacity:1;stroke-width:0.0891379"
       transform="translate(1.25e-6)" />
    <path
       d="m 134.19752,120.48823 -2.59165,-5.72519 c 3.07071,-1.39007 4.8456,-5.41891 3.79324,-8.61529 -0.51048,-1.56284 -1.60997,-3.055 -2.76444,-4.63355 -0.94241,-1.28798 -1.9241,-2.623072 -2.72516,-4.154501 -2.08903,-4.005281 -2.58379,-8.795912 -1.34294,-13.138894 0.62828,-2.191123 1.62567,-4.130937 2.5995,-6.007923 1.09949,-2.120442 2.1283,-4.115228 2.39532,-6.125723 0.24345,-1.861277 -0.19634,-3.832503 -1.21729,-5.411054 -0.92672,-1.421485 -2.35605,-2.646627 -3.87178,-3.9346 -1.1466,-0.981687 -2.34034,-1.994789 -3.43197,-3.188518 -2.5838,-2.827258 -3.58905,-6.196407 -3.57334,-9.958229 l 4.37439,-1.657087 c 0,0 0.79321,4.2723 1.86128,5.976507 1.12305,1.782742 2.79584,2.992182 4.38225,4.34298 1.7906,1.531433 4.10738,2.811553 5.52886,5.010529 1.82201,2.811552 2.61521,6.329915 2.17542,9.659797 -0.40839,3.094275 -1.75133,5.685927 -3.04716,8.191193 -0.86388,1.672794 -1.68065,3.251345 -2.13615,4.845603 -0.80106,2.81155 -0.48692,5.913681 0.87174,8.505333 0.58116,1.115194 1.37436,2.198978 2.22254,3.35344 1.39792,1.9084 2.84296,3.871767 3.66758,6.384887 2.06547,6.24353 -1.15447,13.56298 -7.17024,16.28029 z"
       fill="#03a9f4"
       id="path26"
       style="display:inline;fill:#ff0000;fill-opacity:1;stroke-width:0.0891379"
       transform="translate(1.25e-6)" />
    <path
       d="m 93.681353,101.09011 c -1.178024,-6.659764 3.691141,-10.107449 6.306354,-11.960871 0.314143,-0.219898 0.698963,-0.494771 0.965983,-0.706816 -0.0236,-0.557596 -0.40053,-1.256559 -1.107345,-2.442435 -1.162317,-1.955519 -2.748723,-4.641413 -1.531432,-8.057684 1.060222,-2.96862 4.138787,-3.950306 6.180697,-5.096915 1.74348,-0.981689 3.00789,-2.175417 3.63617,-4.170206 0.73037,-2.324632 0.2199,-8.167632 0.2199,-8.167632 l 3.8325,-2.238245 c 0,0 1.20944,5.583832 1.20944,8.426799 0,8.057681 -4.46864,10.115296 -6.35348,11.175518 -1.30368,0.730374 -2.53667,1.421482 -2.80369,2.175417 -0.19634,0.549744 0.0785,1.17017 1.02095,2.756575 1.1309,1.900547 2.67019,4.51576 1.66494,7.853495 -0.48692,1.625671 -1.85342,2.599505 -3.29847,3.620457 -2.56023,1.814158 -4.209468,3.196373 -3.753965,5.740903 z"
       fill="#f44336"
       id="path34"
       style="display:inline;fill:#ff0000;fill-opacity:1;stroke-width:0.0891379"
       transform="translate(1.25e-6)" />
    <path
       d="m 145.56152,92.97745 c -2.79584,-0.667547 -4.70424,-2.332487 -6.4163,-3.746116 l 4.00528,-4.845606 c 0,0 1.42148,2.112589 4.53932,3.086423 z"
       fill="#f44336"
       id="path36"
       style="display:inline;fill:#ff0000;fill-opacity:1;stroke-width:0.0891379"
       transform="translate(1.25e-6)" />
    <path
       id="path2"
       style="display:inline;fill:#ff0000;fill-opacity:1;stroke-width:0.0891379"
       d="m 117.19243,31.184591 c -8.73703,0.02397 -18.869959,5.970385 -20.385316,16.376261 -1.295826,8.835178 2.002395,15.078535 4.075716,17.992182 0.84032,1.185881 2.33261,1.727682 3.73053,1.3193 3.15711,-0.918858 9.35344,-3.172748 16.15457,-8.198982 5.51314,-4.06811 11.05784,-10.767246 13.67306,-14.112833 a 3.4052742,3.4052742 0 0 0 0.0786,-4.09174 c 0,0 -2.82745,-5.505185 -12.1574,-8.520927 -1.60358,-0.518331 -3.35636,-0.768236 -5.16971,-0.763261 z m 12.85813,12.887585 c 0.76148,-0.01 1.27773,0.872606 0.79375,1.548743 -1.73562,2.434582 -5.38766,6.879576 -11.36416,11.144022 -5.79588,4.13879 -10.71198,6.534071 -13.61777,7.759216 -0.91886,0.384821 -1.75173,-0.690943 -1.16272,-1.484146 1.72777,-2.308926 5.08144,-6.094206 11.19931,-11.026201 6.6362,-5.348228 11.34011,-7.241015 13.9082,-7.908561 0.0832,-0.02135 0.16462,-0.03204 0.24339,-0.03307 z" />
    <path
       fill="#f44336"
       d="m 128.15818,73.186649 -5.54456,-3.832506 2.88223,-3.82465 5.53671,3.832506 z"
       id="path44"
       style="display:inline;fill:#ff0000;fill-opacity:1;stroke-width:0.0891379"
       transform="translate(1.25e-6)" />
    <path
       d="m 120.57171,118.99607 c -1.88484,-1.55499 -3.87963,-3.00003 -5.93724,-4.30371 l 3.3613,-5.30897 c 2.27751,1.43719 4.48434,3.03931 6.57337,4.75922 z"
       fill="#f44336"
       id="path54"
       style="display:inline;fill:#ff0000;fill-opacity:1;stroke-width:0.0891379"
       transform="translate(1.25e-6)" />
  </g>
  <g
     inkscape:label="F.Mask"
     inkscape:groupmode="layer"
     id="g100031"
     transform="translate(-88.454136,-28.958887)"
     style="display:inline">
    <path
       d="m 145.56152,92.977452 c -2.79584,-0.66755 -4.70424,-2.33249 -6.4163,-3.74612 l 4.00528,-4.8456 c 0,0 1.42148,2.11258 4.53932,3.08642 z"
       fill="#f44336"
       id="path36-6"
       style="display:inline;fill:#f1d689;fill-opacity:1;stroke-width:0.0891379" />
    <path
       fill="#f44336"
       d="m 140.51958,57.621022 -4.64141,-2.72516 3.36129,-5.31681 4.64927,2.72516 z"
       id="path38-8"
       style="display:inline;fill:#f1d689;fill-opacity:1;stroke-width:0.0891379" />
    <path
       fill="#f44336"
       d="m 152.56684,117.55888 -6.25923,-3.88748 4.82989,-5.37179 4.8299,4.58644 z"
       id="path40-8"
       style="display:inline;fill:#f1d689;fill-opacity:1;stroke-width:0.0891379" />
    <path
       fill="#fb8c00"
       d="m 172.3867,75.626732 3.68328,-5.08985 5.46604,3.95502 -3.68408,5.08984 z"
       id="path42-8"
       style="display:inline;fill:#f1d689;fill-opacity:1;stroke-width:0.0891379" />
    <path
       fill="#f44336"
       d="m 128.15818,73.186652 -5.54456,-3.83251 2.88223,-3.82465 5.53671,3.83251 z"
       id="path44-2"
       style="display:inline;fill:#f1d689;fill-opacity:1;stroke-width:0.0891379" />
    <path
       d="m 120.52459,104.48282 -3.62046,-5.136188 c 1.60211,-1.1309 3.07071,-2.47385 4.34298,-3.97387 l 4.79063,4.06811 a 29.964999,29.964999 0 0 1 -5.51315,5.041948 z"
       fill="#fb8c00"
       id="path52-5"
       style="display:inline;fill:#f1d689;fill-opacity:1;stroke-width:0.0891379" />
    <path
       d="m 120.57171,118.99607 c -1.88484,-1.55499 -3.87963,-3.00003 -5.93724,-4.30371 l 3.3613,-5.30897 c 2.27751,1.43719 4.48434,3.03931 6.57337,4.75922 z"
       fill="#f44336"
       id="path54-0"
       style="display:inline;fill:#f1d689;fill-opacity:1;stroke-width:0.0891379" />
    <g
       id="g114791"
       transform="translate(118.33242,-12.931777)"
       style="display:inline;fill:#f1d689;fill-opacity:1">
      <path
         id="path2-8-7-2"
         style="display:inline;fill:#f1d689;fill-opacity:1;stroke-width:0.336899"
         d="m -338.62305,57.289062 c -33.02184,0.0906 -71.31954,22.56524 -77.04687,61.894528 -4.89761,33.3928 7.56811,56.98975 15.4043,68.00196 3.17601,4.48207 8.81617,6.52982 14.0996,4.98633 3.80769,-1.1082 8.8844,-2.8088 14.73243,-5.1211 0.0767,-2.8043 0.0506,-5.65368 -0.0234,-8.28516 -3.78153,1.82595 -7.14876,3.33404 -9.98828,4.53126 -3.47286,1.45444 -6.62071,-2.61145 -4.39453,-5.60938 6.53015,-8.72665 19.20546,-23.03322 42.32812,-41.67383 25.0817,-20.21377 42.86024,-27.36761 52.56641,-29.89062 0.31445,-0.0807 0.62221,-0.12111 0.91992,-0.125 2.87803,-0.0378 4.82918,3.29803 3,5.85351 -3.42263,4.80098 -8.83851,11.67764 -16.42383,19.43946 0.76078,2.76362 1.67134,5.63713 2.68164,8.10351 11.4813,-11.8241 21.40692,-23.96594 27.33594,-31.55078 a 12.870328,12.870328 0 0 0 0.29687,-15.464844 c 0,0 -10.68645,-20.806998 -45.94921,-32.205078 -6.06082,-1.959046 -12.6855,-2.903569 -19.53907,-2.884766 z m -1.09765,4.060547 c 5.82483,0.009 14.55052,1.035789 15.32226,7.667969 0.92017,7.895543 -8.87356,8.994751 -16.65039,10.300781 -7.18314,1.216982 -14.60336,-0.831853 -15.96875,-6.708984 -1.21697,-5.194435 6.82661,-10.744601 13.86133,-11.160156 0.90161,-0.05009 2.09135,-0.101696 3.43555,-0.09961 z m 20.02343,84.761721 c -3.20783,2.61454 -6.61591,5.2454 -10.27929,7.85937 -9.21302,6.57892 -17.78119,11.93091 -25.5,16.33985 0.49243,2.78415 0.99321,5.80463 1.41992,8.86523 8.91008,-4.57913 18.74031,-10.44893 28.94726,-17.99219 2.9407,-2.16991 5.88095,-4.55419 8.79493,-7.05664 -1.37178,-2.58495 -2.49255,-5.25912 -3.38282,-8.01562 z"
         transform="matrix(0.26458333,0,0,0.26458333,88.454136,28.958887)" />
      <path
         id="path13-0-2-4-6"
         style="display:inline;fill:#f1d689;fill-opacity:1;stroke-width:0.336899"
         d="m -181.24219,54.808594 c -0.50551,-0.0034 -1.00987,-0.0014 -1.51367,0.0039 -7.44076,0.07899 -14.68158,1.106359 -21.33789,2.898438 -19.70918,5.313169 -37.78458,23.003158 -48.05469,34.787109 -5.25384,6.025538 -4.69121,15.138409 1.15625,20.570309 8.68358,8.06618 21.82879,19.90727 34.61524,29.99609 1.22116,-2.96493 2.61689,-5.88165 4.18554,-8.73633 -11.32248,-8.77076 -19.23461,-16.07872 -24.04882,-20.87304 -1.69471,-1.69468 -0.39027,-4.4378 1.79101,-4.45117 0.22564,-0.001 0.46105,0.0268 0.70313,0.0879 11.33869,2.84951 32.26445,9.23008 50.8457,20.83593 19.05615,11.93237 38.32039,30.06923 48.08594,39.77539 1.92933,1.89969 0.0302,5.10572 -2.58203,4.33399 -5.71537,-1.66343 -13.73987,-4.31406 -22.91993,-8.21875 -0.66935,3.00331 -1.31927,6.04173 -1.95117,9.11133 12.3939,5.19047 22.14537,7.84055 28.75977,9.16992 6.20364,1.24664 12.46619,-1.66342 15.67187,-7.125 6.50049,-11.04188 15.78996,-31.72973 11.8125,-55.08984 -8.35651,-49.189665 -43.37117,-66.862487 -75.21875,-67.076172 z m -1.38086,6.082031 c 2.63687,0.03184 5.27681,0.288177 7.85547,0.826172 10.89347,2.285552 14.30677,17.987072 -1.03906,17.779297 -10.44824,-0.148422 -15.87977,-2.197286 -30.24609,2.314453 -11.72459,3.680629 -15.0208,-4.599892 -8.75782,-10.892578 3.80681,-3.831826 17.94843,-10.199257 32.1875,-10.027344 z m -12.72265,85.693355 c -1.20658,3.08614 -2.15639,6.27578 -2.85938,9.52344 5.90204,3.68133 11.49965,6.8865 16.79492,9.70313 0.72057,-3.11968 1.44029,-6.20002 2.15821,-9.22461 -4.51816,-2.50362 -9.11689,-5.27476 -13.71094,-8.37305 -0.81283,-0.5481 -1.59168,-1.08679 -2.38281,-1.62891 z"
         transform="matrix(0.26458333,0,0,0.26458333,88.454136,28.958887)" />
    </g>
  </g>
  <g
     inkscape:label="F.SilkS"
     inkscape:groupmode="layer"
     id="g100033"
     transform="translate(-88.454136,-28.958887)"
     style="display:inline">
    <path
       d="m 112.32554,35.238574 c 0.36126,1.554991 2.32464,2.096882 4.22518,1.774889 2.05762,-0.345554 4.64927,-0.636133 4.40581,-2.725162 -0.25131,-2.15971 -3.69114,-2.073322 -4.96341,-2.00264 -1.86127,0.109949 -3.98957,1.578552 -3.66758,2.952913 z"
       fill="#ffee58"
       id="path11"
       style="fill:#ccd1cd;fill-opacity:1;stroke-width:0.0891379"
       transform="translate(1.25e-6)" />
    <path
       d="m 152.26841,37.673156 c -3.10213,0.973833 -3.97387,-1.217291 -2.31679,-2.882231 1.19374,-1.201585 6.22783,-3.345588 10.59437,-2.434583 2.88223,0.604719 3.78538,4.759216 -0.27487,4.704242 -2.76443,-0.03927 -4.20162,-0.581159 -8.00271,0.612572 z"
       fill="#ffee58"
       id="path22"
       style="fill:#ccd1cd;fill-opacity:1;stroke-width:0.0891379"
       transform="translate(1.25e-6)" />
    <path
       d="m 94.875084,125.21603 -3.714702,-5.0655 C 114.98002,102.70007 117.5167,77.14481 115.83605,64.12372 l 4.74352,-1.452899 c 1.86127,14.395453 0.71466,43.194209 -25.704486,62.545209 z"
       fill="#f48fb1"
       id="path28"
       style="fill:#ccd1cd;fill-opacity:1;stroke-width:0.0891379"
       transform="translate(1.25e-6)" />
    <path
       d="m 176.88125,103.25767 -5.70163,-2.64663 c 1.45289,-3.125686 0.2356,-6.903216 -1.38222,-9.392773 -2.10474,-3.23564 -5.41891,-5.811583 -8.63099,-8.301141 -3.44768,-2.670188 -7.35087,-5.693783 -10.03676,-9.879695 -4.93985,-7.688569 -4.06811,-17.261974 1.50002,-24.510748 l 4.56288,2.552385 c -4.00529,5.222571 -4.32728,13.02109 -0.7775,18.557801 2.09688,3.274907 5.4032,5.827292 8.59957,8.308996 3.45554,2.678041 7.36658,5.709489 10.05247,9.840426 3.23564,4.986967 3.9346,10.916353 1.81416,15.471379 z"
       fill="#f44336"
       id="path32"
       style="fill:#ccd1cd;fill-opacity:1;stroke-width:0.0891379"
       transform="translate(1.25e-6)" />
    <path
       d="m 142.31803,80.623906 c -2.19112,-1.86913 -5.85085,-1.735622 -5.85085,-1.735622 l 1.78274,-6.023628 c 0,0 4.0524,-0.565452 6.78542,2.285365 z"
       fill="#fb8c00"
       id="path48"
       style="fill:#ccd1cd;fill-opacity:1;stroke-width:0.0891379"
       transform="translate(1.25e-6)" />
    <path
       fill="#fb8c00"
       d="m 90.265869,105.57838 5.698494,-0.34791 0.382465,6.27101 -5.698494,0.34791 z"
       id="path50"
       style="fill:#ccd1cd;fill-opacity:1;stroke-width:0.0891379"
       transform="translate(1.25e-6)" />
    <path
       fill="#ffc107"
       d="m 148.95423,95.281664 6.32992,-5.074142 3.92988,4.901366 -6.32991,5.074922 z"
       id="path58"
       style="fill:#ccd1cd;fill-opacity:1;stroke-width:0.0891379"
       transform="translate(1.25e-6)" />
    <path
       d="m 146.79452,126.74747 c -1.09949,-2.01835 -2.33249,-3.98958 -3.66758,-5.85871 l 5.11262,-3.65187 a 61.838397,61.838397 0 0 1 4.06811,6.51054 z"
       fill="#fb8c00"
       id="path60"
       style="fill:#ccd1cd;fill-opacity:1;stroke-width:0.0891379"
       transform="translate(1.25e-6)" />
  </g>
</svg>
