<?xml version="1.0" encoding="UTF-8" standalone="no"?>
<svg
   width="357.74197"
   height="377.95319"
   viewBox="0 0 357.74197 377.95319"
   aria-hidden="true"
   role="img"
   class="iconify iconify--noto"
   preserveAspectRatio="xMidYMid meet"
   version="1.1"
   id="svg62"
   sodipodi:docname="confetti-ball-svgrepo-com.svg"
   inkscape:version="1.1 (c68e22c387, 2021-05-23)"
   xmlns:inkscape="http://www.inkscape.org/namespaces/inkscape"
   xmlns:sodipodi="http://sodipodi.sourceforge.net/DTD/sodipodi-0.dtd"
   xmlns="http://www.w3.org/2000/svg"
   xmlns:svg="http://www.w3.org/2000/svg">
  <defs
     id="defs66">
    <radialGradient
       id="IconifyId17ecdb2904d178eab6128-5"
       cx="39.661999"
       cy="33.066002"
       r="15.102"
       gradientUnits="userSpaceOnUse"
       gradientTransform="translate(-5.3696897,181.32033)">
      <stop
         offset=".376"
         stop-color="#af5700"
         id="stop4-7" />
      <stop
         offset="1"
         stop-color="#8f4700"
         id="stop6-7" />
    </radialGradient>
    <radialGradient
       id="IconifyId17ecdb2904d178eab6129-8"
       cx="90.500999"
       cy="31.969999"
       r="21.224001"
       gradientUnits="userSpaceOnUse"
       gradientTransform="translate(-5.3696897,181.32033)">
      <stop
         offset=".376"
         stop-color="#af5700"
         id="stop15-7" />
      <stop
         offset="1"
         stop-color="#8f4700"
         id="stop17-5" />
    </radialGradient>
    <radialGradient
       id="IconifyId17ecdb2904d178eab6128-1"
       cx="39.661999"
       cy="33.066002"
       r="15.102"
       gradientUnits="userSpaceOnUse">
      <stop
         offset=".376"
         stop-color="#af5700"
         id="stop4-1" />
      <stop
         offset="1"
         stop-color="#8f4700"
         id="stop6-3" />
    </radialGradient>
    <radialGradient
       id="IconifyId17ecdb2904d178eab6129-85"
       cx="90.500999"
       cy="31.969999"
       r="21.224001"
       gradientUnits="userSpaceOnUse">
      <stop
         offset=".376"
         stop-color="#af5700"
         id="stop15-3" />
      <stop
         offset="1"
         stop-color="#8f4700"
         id="stop17-7" />
    </radialGradient>
  </defs>
  <sodipodi:namedview
     id="namedview64"
     pagecolor="#ffffff"
     bordercolor="#666666"
     borderopacity="1.0"
     inkscape:pageshadow="2"
     inkscape:pageopacity="0.0"
     inkscape:pagecheckerboard="0"
     showgrid="false"
     inkscape:zoom="1.4142136"
     inkscape:cx="68.942911"
     inkscape:cy="226.62772"
     inkscape:window-width="1858"
     inkscape:window-height="1177"
     inkscape:window-x="54"
     inkscape:window-y="-8"
     inkscape:window-maximized="1"
     inkscape:current-layer="svg62"
     fit-margin-top="0"
     fit-margin-left="0"
     fit-margin-right="0"
     fit-margin-bottom="0" />
  <radialGradient
     id="IconifyId17ecdb2904d178eab6128"
     cx="39.661999"
     cy="33.066002"
     r="15.102"
     gradientUnits="userSpaceOnUse"
     gradientTransform="matrix(2.9682491,0,0,2.9682491,-6.9297851,-2.2035234)">
    <stop
       offset=".376"
       stop-color="#af5700"
       id="stop4" />
    <stop
       offset="1"
       stop-color="#8f4700"
       id="stop6" />
  </radialGradient>
  <radialGradient
     id="IconifyId17ecdb2904d178eab6129"
     cx="90.500999"
     cy="31.969999"
     r="21.224001"
     gradientUnits="userSpaceOnUse"
     gradientTransform="matrix(2.9682491,0,0,2.9682491,-6.9297851,-2.2035234)">
    <stop
       offset=".376"
       stop-color="#af5700"
       id="stop15" />
    <stop
       offset="1"
       stop-color="#8f4700"
       id="stop17" />
  </radialGradient>
  <path
     style="color:#000000;fill:#000000;stroke-linecap:round;stroke-linejoin:round;-inkscape-stroke:none"
     d="m -290.35744,281.08573 0.14454,0.24023 c 0,0 -0.0489,-0.0747 -0.0508,-0.0781 -0.0345,-0.0521 -0.0577,-0.11104 -0.0937,-0.16211 z"
     id="path112774" />
  <path
     style="color:#000000;fill:#323142;fill-opacity:1;stroke-width:1;stroke-linecap:round;stroke-linejoin:round;-inkscape-stroke:none"
     d="m 264.4146,0.00505539 c -7.94641,0.0843 -15.66914,1.17679101 -22.8184,3.10158101 -22.02501,5.937474 -40.3833,24.4485906 -50.98775,36.6161166 -0.38415,0.44061 -0.51143,0.8884 -0.83482,1.33919 -3.61954,-0.56688 -7.27348,-0.98042 -10.97441,-1.16528 -0.66589,-1.18175 -3.58068,-6.17357 -10.39465,-12.551291 C 160.73738,20.1691 148.44415,11.621854 129.97387,5.6516704 123.85424,3.6736014 117.31753,2.6524644 110.61072,2.4979084 92.50729,2.0807504 73.14025,7.8841194 57.22863,19.21748 41.31702,30.550873 28.85629,47.675903 25.68522,69.451593 c -5.16347,35.218527 8.01367,60.453147 16.44709,72.304667 4.60007,6.48251 12.8726,9.4951 20.59803,7.2409 1.61315,-0.46949 4.15118,-1.46638 6.1278,-2.12764 -0.0704,0.3181 -0.0831,1.15185 -0.15643,1.38557 -1.89365,6.00788 -5.12904,9.07046 -10.99181,12.37157 -6.75926,3.79377 -20.95074,8.18102 -26.04173,22.43576 v 0.006 c -5.47865,15.37555 1.87866,28.0773 6.27855,35.47981 l 0.006,0.006 c 1.65744,2.78083 1.68172,3.08279 2.12182,4.07555 -4.94362,3.50286 -12.61324,8.85969 -18.5863,17.09642 -5.521,7.61332 -9.17355,18.08731 -7.80905,30.71439 -4.0287401,4.29855 -9.9642201,9.0858 -12.4991101,17.42105 l -0.0178,0.0926 c -3.02639,10.10226 0.75922,19.06244 1.18846,25.57795 l 0.0178,0.23806 c 0.54838,9.32555 -2.02651,21.00495 2.27837,32.90581 l 0.0178,0.0407 c 2.79493,7.71151 6.8110301,18.66787 17.5079901,22.62128 l 0.0813,0.0347 c 17.97912,6.55724 35.69772,0.36518 52.20521,-6.7945 16.50749,-7.15968 32.49144,-15.3908 47.28905,-16.34275 16.54207,-1.06418 33.57384,0.74741 49.44565,5.39734 0.0148,0.003 0.0267,0.009 0.0407,0.0119 7.24104,2.13197 14.32728,6.93827 22.00097,11.94835 7.38565,4.82203 15.48959,9.70872 25.22431,11.50196 l 1.1421,0.36518 c 33.98512,5.24584 73.47875,3.28698 103.3031,-16.36015 8.61528,-5.67541 12.53574,-15.21725 15.02675,-23.31116 l 0.14515,-0.75375 c 5.41919,-18.44481 1.56394,-36.97742 2.06964,-53.29512 5.01429,-11.75494 5.68835,-25.1729 2.55664,-38.32633 1.29288,-16.52563 2.24414,-33.27391 1.14788,-50.19933 l 12.76573,-17.63568 c 1.92126,-2.65744 1.32425,-6.36927 -1.3334,-8.29023 l -18.81242,-13.6122 c -1.47706,-6.173 -2.69395,-12.97949 -4.30743,-19.87912 0.78409,-0.90737 1.71752,-1.60081 2.35373,-2.68419 v -0.006 C 341.40779,119.40162 351.39977,97.451883 347.06865,72.014523 342.61064,45.775283 330.63353,27.34365 315.31651,15.861313 299.99949,4.3790054 281.63103,-0.17722461 264.4157,0.00555939 Z"
     id="path112587"
     sodipodi:nodetypes="ccsccsssscccccccccccscccccccccssscsccsccccccccccccscc" />
  <path
     d="m 174.10373,43.507513 a 12.870328,12.870328 0 0 1 -0.29683,15.464578 c -9.88427,12.644741 -30.84011,37.963906 -51.67721,53.339439 -25.705041,18.99679 -49.124527,27.51567 -61.056888,30.98852 -5.283484,1.54349 -10.923157,-0.5046 -14.099183,-4.98666 C 39.137441,127.30118 26.670795,103.7036 31.568406,70.310802 38.484426,22.818817 92.892432,-0.09606654 128.15523,11.30201 c 35.2628,11.398077 45.9485,32.205503 45.9485,32.205503 z"
     fill="#ffc107"
     id="path2"
     style="stroke-width:0.336899;fill:#f1d689;fill-opacity:1" />
  <path
     d="m 65.792318,134.42498 c -3.472852,1.45444 -6.619196,-2.61206 -4.393009,-5.60999 6.530148,-8.72665 19.204572,-23.03361 42.327231,-41.674215 25.08171,-20.213777 42.86152,-27.367257 52.56769,-29.890269 3.35412,-0.860792 5.9365,2.908884 3.91809,5.728721 -6.55983,9.201572 -20.36219,26.001862 -42.95056,42.119453 -21.905681,15.64267 -40.48692,24.69583 -51.469442,29.3263 z"
     fill="url(#IconifyId17ecdb2904d178eab6128)"
     id="path9"
     style="fill:#323142;stroke-width:1;fill-opacity:1" />
  <path
     d="m 90.221008,23.738974 c 1.365395,5.877133 8.786017,7.925225 15.969182,6.708243 7.77681,-1.30603 17.57203,-2.404282 16.65188,-10.299825 -0.94984,-8.162685 -13.95078,-7.836177 -18.75934,-7.569035 -7.034749,0.415555 -15.078704,5.966181 -13.861722,11.160617 z"
     fill="#ffee58"
     id="path11"
     style="stroke-width:0.336899;fill:#ccd1cd;fill-opacity:1" />
  <path
     d="m 243.1452,8.8383633 c 35.50026,-9.55776215 87.62272,2.6714237 98.07095,64.1735457 3.97746,23.36012 -5.31316,44.048821 -11.81363,55.090701 -3.20571,5.46158 -9.46871,8.37046 -15.67235,7.1238 -12.11046,-2.43396 -34.66915,-9.23125 -64.88593,-28.10932 C 232.04395,96.639172 209.18843,76.217618 196.24687,64.196209 190.39942,58.764313 189.83545,49.651788 195.08925,43.626243 205.35939,31.842294 223.43603,14.151529 243.1452,8.8383633 Z"
     fill="#ffc107"
     id="path13"
     style="stroke-width:0.336899;fill:#f1d689;fill-opacity:1" />
  <path
     d="m 210.99906,64.582081 c -1.86999,-1.869997 -0.089,-5.016341 2.49333,-4.363326 11.33871,2.849519 32.26487,9.231255 50.84611,20.837109 19.05616,11.932361 38.3201,30.068366 48.08564,39.774536 1.92936,1.89968 0.0297,5.10539 -2.58238,4.33365 C 297.9094,121.69119 275.97404,113.97375 254.27614,99.340278 232.22204,84.46935 218.18223,71.735562 210.99906,64.582081 Z"
     fill="url(#IconifyId17ecdb2904d178eab6129)"
     id="path20"
     style="fill:#323142;stroke-width:1;fill-opacity:1" />
  <path
     d="m 241.18616,32.940546 c -11.72459,3.680629 -15.01934,-4.600786 -8.75634,-10.893474 4.51174,-4.541421 23.53822,-12.6447414 40.04168,-9.201572 10.89348,2.285551 14.30696,17.987589 -1.03888,17.779812 -10.44824,-0.148413 -15.88014,-2.196505 -30.24646,2.315234 z"
     fill="#ffee58"
     id="path22"
     style="stroke-width:0.336899;fill:#ccd1cd;fill-opacity:1" />
  <path
     d="m 319.63698,354.13478 c -36.9547,-23.24139 -61.7099,-68.50719 -66.22164,-121.10456 -4.0665,-47.52167 7.45031,-95.63699 16.71125,-134.283592 l 18.99679,8.637602 c -8.84538,36.98439 -15.79109,79.90527 -12.05109,123.5979 3.85872,45.20643 24.51774,83.7343 55.20943,103.02792 z"
     fill="#03a9f4"
     id="path24"
     style="stroke-width:0.336899;fill:#523061;fill-opacity:1" />
  <path
     d="m 172.88675,345.94241 -9.79523,-21.63853 c 11.60586,-5.2538 18.3141,-20.48092 14.33665,-32.5617 -1.92937,-5.90681 -6.08491,-11.54648 -10.44824,-17.51266 -3.5619,-4.86793 -7.27221,-9.91396 -10.29982,-15.70204 -7.89555,-15.13807 -9.76554,-33.24439 -5.07571,-49.65881 2.3746,-8.28141 6.14427,-15.61299 9.8249,-22.70711 4.15555,-8.01427 8.04396,-15.55362 9.05316,-23.15234 0.92016,-7.03475 -0.74206,-14.48505 -4.60078,-20.45123 -3.50254,-5.37254 -8.90475,-10.003 -14.63347,-14.87093 -4.33364,-3.71031 -8.84538,-7.53936 -12.97125,-12.05109 -9.76554,-10.6857 -13.5649,-23.41949 -13.50553,-37.637403 l 16.53314,-6.263005 c 0,0 2.99794,16.147275 7.03476,22.588375 4.24459,6.737923 10.56696,11.309033 16.56283,16.414413 6.7676,5.78809 15.52394,10.62634 20.89647,18.93743 6.88634,10.62634 9.88427,23.92409 8.22205,36.50947 -1.54349,11.6949 -6.6192,21.49012 -11.51681,30.95884 -3.26507,6.32237 -6.35205,12.28855 -8.07364,18.31409 -3.02761,10.62633 -1.84031,22.35092 3.29476,32.14614 2.19651,4.21491 5.19444,8.3111 8.40015,12.67442 5.28348,7.21285 10.74506,14.63347 13.86172,24.13187 7.80649,23.59758 -4.36333,51.26166 -27.10011,61.5318 z"
     fill="#03a9f4"
     id="path26"
     style="stroke-width:0.336899;fill:#523061;fill-opacity:1" />
  <path
     d="M 24.266513,363.81127 10.226695,344.66607 C 100.25369,278.71157 109.84113,182.12475 103.48908,132.91118 l 17.92823,-5.49127 c 7.03475,54.40801 2.7011,163.25371 -97.150797,236.39136 z"
     fill="#f48fb1"
     id="path28"
     style="stroke-width:0.336899;fill:#ccd1cd;fill-opacity:1" />
  <path
     d="m 334.21108,280.81903 -21.54948,-10.003 c 5.49126,-11.81363 0.89047,-26.09091 -5.22412,-35.50026 -7.95491,-12.22919 -20.48092,-21.96504 -32.62106,-31.37439 -13.03061,-10.09205 -27.78281,-21.51981 -37.93422,-37.34058 -18.67029,-29.05916 -15.37553,-65.24211 5.66935,-92.639051 l 17.24553,9.646809 c -15.13807,19.738852 -16.35505,49.213572 -2.93857,70.139722 7.92523,12.3776 20.42156,22.02441 32.50233,31.40408 13.0603,10.12173 27.84218,21.57917 37.99359,37.19216 12.22918,18.84838 14.87093,41.25866 6.85665,58.47451 z"
     fill="#f44336"
     id="path32"
     style="stroke-width:0.336899;fill:#ccd1cd;fill-opacity:1" />
  <path
     d="m 19.754774,272.62666 c -4.452373,-25.17075 13.950771,-38.20137 23.835041,-45.20643 1.187299,-0.83111 2.641741,-1.87 3.650946,-2.67143 -0.08905,-2.10745 -1.513807,-4.7492 -4.185231,-9.23125 -4.393009,-7.39094 -10.388872,-17.54235 -5.788086,-30.45424 4.007136,-11.21998 15.642673,-14.93029 23.36012,-19.26393 6.589513,-3.71032 11.368394,-8.22205 13.742994,-15.76141 2.760471,-8.78601 0.831109,-30.86979 0.831109,-30.86979 l 14.485056,-8.45951 c 0,0 4.571104,21.10425 4.571104,31.84932 0,30.45423 -16.889338,38.23104 -24.013135,42.23818 -4.927294,2.76047 -9.587445,5.37253 -10.59665,8.22205 -0.742062,2.07777 0.296825,4.42269 3.858724,10.41855 4.274279,7.18317 10.092047,17.06744 6.292688,29.6825 -1.840314,6.14427 -7.005068,9.8249 -12.466646,13.68362 -9.676492,6.85666 -15.909815,12.08078 -14.188231,21.6979 z"
     fill="#f44336"
     id="path34"
     style="stroke-width:0.336899;fill:#523061;fill-opacity:1" />
  <path
     d="m 215.83731,241.96465 c -10.56697,-2.52301 -17.77981,-8.8157 -24.2506,-14.15855 l 15.13808,-18.3141 c 0,0 5.37253,7.98459 17.15647,11.66522 z"
     fill="#f44336"
     id="path36"
     style="stroke-width:0.336899;fill:#f1d689;fill-opacity:1" />
  <path
     fill="#f44336"
     d="M 196.78115,108.33407 179.2388,98.034249 191.9429,77.939202 209.51494,88.239027 Z"
     id="path38"
     style="stroke-width:0.336899;fill:#b1a062;fill-opacity:1" />
  <path
     fill="#f44336"
     d="m 242.31409,334.87084 -23.65694,-14.69283 18.25473,-20.30282 18.25473,17.33457 z"
     id="path40"
     style="stroke-width:0.336899;fill:#b1a062;fill-opacity:1" />
  <path
     fill="#fb8c00"
     d="m 317.22379,176.38712 13.92109,-19.23722 20.65902,14.9481 -13.92406,19.23722 z"
     id="path42"
     style="stroke-width:0.336899;fill:#b1a062;fill-opacity:1" />
  <path
     fill="#f44336"
     d="m 150.06091,167.16477 -20.95584,-14.48506 10.89348,-14.45537 20.92615,14.48506 z"
     id="path44"
     style="stroke-width:0.336899;fill:#f1d689;fill-opacity:1" />
  <path
     d="m 203.57844,195.27409 c -8.28141,-7.06443 -22.11345,-6.55983 -22.11345,-6.55983 l 6.73792,-22.76647 c 0,0 15.31617,-2.13714 25.64567,8.6376 z"
     fill="#fb8c00"
     id="path48"
     style="stroke-width:0.336899;fill:#ccd1cd;fill-opacity:1" />
  <path
     fill="#fb8c00"
     d="m 6.845859,289.5902 21.537615,-1.31493 1.445538,23.70147 -21.5376157,1.31493 z"
     id="path50"
     style="stroke-width:0.336899;fill:#ccd1cd;fill-opacity:1" />
  <path
     d="M 121.20953,285.4495 107.5259,266.03715 c 6.05523,-4.27428 11.60585,-9.34999 16.41442,-15.01934 l 18.10632,15.37553 a 113.25354,113.25354 0 0 1 -20.83711,19.05616 z"
     fill="#fb8c00"
     id="path52"
     style="stroke-width:0.336899;fill:#b1a062;fill-opacity:1" />
  <path
     d="m 121.38762,340.30274 c -7.12379,-5.87713 -14.66315,-11.33871 -22.43996,-16.266 l 12.70411,-20.06537 c 8.60792,5.4319 16.9487,11.48713 24.84424,17.98759 z"
     fill="#f44336"
     id="path54"
     style="stroke-width:0.336899;fill:#f1d689;fill-opacity:1" />
  <path
     fill="#ffc107"
     d="m 228.66015,250.67349 23.92408,-19.17786 14.85312,18.52485 -23.92409,19.18082 z"
     id="path58"
     style="stroke-width:0.336899;fill:#ccd1cd;fill-opacity:1" />
  <path
     d="m 220.49746,369.59936 c -4.15555,-7.6284 -8.8157,-15.07871 -13.86172,-22.14314 l 19.3233,-13.80236 a 233.71993,233.71993 0 0 1 15.37553,24.60679 z"
     fill="#fb8c00"
     id="path60"
     style="stroke-width:0.336899;fill:#ccd1cd;fill-opacity:1" />
</svg>
